<svg fill="#0A163E" xmlns:dc="http://purl.org/dc/elements/1.1/" xmlns:cc="http://creativecommons.org/ns#" xmlns:rdf="http://www.w3.org/1999/02/22-rdf-syntax-ns#" xmlns:svg="http://www.w3.org/2000/svg" xmlns="http://www.w3.org/2000/svg" xmlns:sodipodi="http://sodipodi.sourceforge.net/DTD/sodipodi-0.dtd" xmlns:inkscape="http://www.inkscape.org/namespaces/inkscape" version="1.1" x="0px" y="0px" viewBox="0 0 100 100"><g transform="translate(0,-952.36218)"><path style="font-size:medium;font-style:normal;font-variant:normal;font-weight:normal;font-stretch:normal;text-indent:0;text-align:start;text-decoration:none;line-height:normal;letter-spacing:normal;word-spacing:normal;text-transform:none;direction:ltr;block-progression:tb;writing-mode:lr-tb;text-anchor:start;baseline-shift:baseline;opacity:1;color:#000000;fill:#0A163E;fill-opacity:1;stroke:none;stroke-width:3.99999951999999980;marker:none;visibility:visible;display:inline;overflow:visible;enable-background:accumulate;font-family:Sans;-inkscape-font-specification:Sans" d="M 49.6875 6 A 2.0001998 2.0001998 0 0 0 49.125 6.1875 L 14.125 23.0625 A 2.0001998 2.0001998 0 0 0 13 24.84375 L 13 38.375 C 13 63.1556 27.830158 84.3917 49.1875 93.8125 A 2.0001998 2.0001998 0 0 0 50.8125 93.8125 C 72.171471 84.3923 87 63.1566 87 38.375 L 87 24.84375 A 2.0001998 2.0001998 0 0 0 85.875 23.0625 L 50.875 6.1875 A 2.0001998 2.0001998 0 0 0 49.6875 6 z M 50 10.1875 L 83 26.125 L 83 38.375 C 83 61.2332 69.50036 80.73645 50 89.71875 C 30.501062 80.73585 17 61.232 17 38.375 L 17 26.125 L 50 10.1875 z M 67.8125 35.96875 A 2.0001998 2.0001998 0 0 0 66.625 36.53125 L 45.03125 57.1875 L 35.40625 47.5625 A 2.0001998 2.0001998 0 1 0 32.59375 50.40625 L 43.59375 61.40625 A 2.0001998 2.0001998 0 0 0 46.375 61.4375 L 69.375 39.4375 A 2.0001998 2.0001998 0 0 0 67.8125 35.96875 z " transform="translate(0,952.36218)"></path></g></svg>