<svg fill="#0A163E" xmlns="http://www.w3.org/2000/svg" xmlns:xlink="http://www.w3.org/1999/xlink" version="1.1" x="0px" y="0px" viewBox="0 0 100 100" enable-background="new 0 0 100 100" xml:space="preserve"><path d="M78.4,58.9c0.2-0.8-0.1-1.7-0.7-2.3L41.8,20.7C41.1,20,40,19.8,39,20.2c-0.9,0.4-1.5,1.3-1.5,2.3v50.8  c0,0.8,0.4,1.6,1.1,2.1c0.7,0.5,1.6,0.5,2.3,0.2l11-4.5l9.3,22.4c0.4,1,1.3,1.5,2.3,1.5c0.3,0,0.6-0.1,1-0.2l9.4-3.9  c1.3-0.5,1.9-2,1.4-3.3l-9.3-22.4l11-4.5C77.7,60.4,78.2,59.7,78.4,58.9z M61.7,61.6c-0.6,0.3-1.1,0.7-1.4,1.4  c-0.3,0.6-0.3,1.3,0,1.9l9.3,22.4l-4.8,2l-9.3-22.4c-0.3-0.6-0.7-1.1-1.4-1.4c-0.3-0.1-0.6-0.2-1-0.2s-0.7,0.1-1,0.2l-9.8,4.1v-41  l29,29L61.7,61.6z"></path><path d="M40,15c1.4,0,2.5-1.1,2.5-2.5v-5C42.5,6.1,41.4,5,40,5s-2.5,1.1-2.5,2.5v5C37.5,13.9,38.6,15,40,15z"></path><path d="M32.6,15.3l-4.3-2.5c-1.2-0.7-2.7-0.3-3.4,0.9c-0.7,1.2-0.3,2.7,0.9,3.4l4.3,2.5c0.4,0.2,0.8,0.3,1.2,0.3  c0.9,0,1.7-0.4,2.2-1.3C34.2,17.6,33.8,16,32.6,15.3z"></path><path d="M48.7,20c0.4,0,0.9-0.1,1.2-0.3l4.3-2.5c1.2-0.7,1.6-2.2,0.9-3.4c-0.7-1.2-2.2-1.6-3.4-0.9l-4.3,2.5  c-1.2,0.7-1.6,2.2-0.9,3.4C47,19.6,47.8,20,48.7,20z"></path><path d="M30.1,25.3l-4.3,2.5c-1.2,0.7-1.6,2.2-0.9,3.4c0.5,0.8,1.3,1.3,2.2,1.3c0.4,0,0.9-0.1,1.2-0.3l4.3-2.5  c1.2-0.7,1.6-2.2,0.9-3.4C32.8,25.1,31.3,24.6,30.1,25.3z"></path></svg>